0
SECTION
2
HEADER
9
$INSUNITS
70
4
9
$ACADVER
1
AC1014
9
$HANDSEED
5
FFFF
0
ENDSEC
0
SECTION
2
TABLES
0
TABLE
2
VPORT
5
8
100
AcDbSymbolTable
0
ENDTAB
0
TABLE
2
LTYPE
5
5
100
AcDbSymbolTable
0
LTYPE
5
14
100
AcDbSymbolTableRecord
100
AcDbLinetypeTableRecord
2
BYBLOCK
70
0
0
LTYPE
5
15
100
AcDbSymbolTableRecord
100
AcDbLinetypeTableRecord
2
BYLAYER
70
0
0
ENDTAB
0
TABLE
2
LAYER
5
2
100
AcDbSymbolTable
70
2
0
LAYER
5
50
100
AcDbSymbolTableRecord
100
AcDbLayerTableRecord
2
0
70
0
6
CONTINUOUS
0
ENDTAB
0
TABLE
2
STYLE
5
3
100
AcDbSymbolTable
70
1
0
STYLE
5
11
100
AcDbSymbolTableRecord
100
AcDbTextStyleTableRecord
2
STANDARD
70
0
0
ENDTAB
0
TABLE
2
VIEW
5
6
100
AcDbSymbolTable
70
0
0
ENDTAB
0
TABLE
2
UCS
5
7
100
AcDbSymbolTable
70
0
0
ENDTAB
0
TABLE
2
APPID
5
9
100
AcDbSymbolTable
70
2
0
APPID
5
12
100
AcDbSymbolTableRecord
100
AcDbRegAppTableRecord
2
ACAD
70
0
0
ENDTAB
0
TABLE
2
DIMSTYLE
5
A
100
AcDbSymbolTable
70
1
0
ENDTAB
0
TABLE
2
BLOCK_RECORD
5
1
100
AcDbSymbolTable
70
1
0
BLOCK_RECORD
5
1F
100
AcDbSymbolTableRecord
100
AcDbBlockTableRecord
2
*MODEL_SPACE
0
BLOCK_RECORD
5
1B
100
AcDbSymbolTableRecord
100
AcDbBlockTableRecord
2
*PAPER_SPACE
0
ENDTAB
0
ENDSEC
0
SECTION
2
BLOCKS
0
BLOCK
5
20
100
AcDbEntity
100
AcDbBlockBegin
2
*MODEL_SPACE
0
ENDBLK
5
21
100
AcDbEntity
100
AcDbBlockEnd
0
BLOCK
5
1C
100
AcDbEntity
100
AcDbBlockBegin
2
*PAPER_SPACE
0
ENDBLK
5
1D
100
AcDbEntity
100
AcDbBlockEnd
0
ENDSEC
0
SECTION
2
ENTITIES
0
LWPOLYLINE
5
100
100
AcDbEntity
8
0
100
AcDbPolyline
90
2
70
1
43
0.0
10
-31.380508133571105
20
17.022478873175494
10
-31.380508133571105
20
-26.293230254815821
0
LWPOLYLINE
5
101
100
AcDbEntity
8
0
100
AcDbPolyline
90
2
70
1
43
0.0
10
-31.380508133571105
20
-26.293230254815821
42
0.41421356237309553
10
-28.880508133571105
20
-28.793230254815825
42
-0.41421356237309553
0
LWPOLYLINE
5
102
100
AcDbEntity
8
0
100
AcDbPolyline
90
2
70
1
43
0.0
10
-28.880508133571105
20
-28.793230254815821
10
37.389370607003258
20
-28.793230254815821
0
LWPOLYLINE
5
103
100
AcDbEntity
8
0
100
AcDbPolyline
90
2
70
1
43
0.0
10
37.389370607003258
20
-28.793230254815821
42
0.41421356237309553
10
39.889370607003251
20
-26.293230254815821
42
-0.41421356237309553
0
LWPOLYLINE
5
104
100
AcDbEntity
8
0
100
AcDbPolyline
90
2
70
1
43
0.0
10
39.889370607003258
20
-26.293230254815821
10
39.889370607003258
20
17.022478873175494
0
LWPOLYLINE
5
105
100
AcDbEntity
8
0
100
AcDbPolyline
90
2
70
1
43
0.0
10
39.889370607003258
20
17.022478873175494
42
0.41421356237309426
10
37.389370607003258
20
19.522478873175498
42
-0.41421356237309426
0
LWPOLYLINE
5
106
100
AcDbEntity
8
0
100
AcDbPolyline
90
2
70
1
43
0.0
10
37.389370607003258
20
19.522478873175498
10
14.887552481947633
20
19.522478873175498
0
LWPOLYLINE
5
107
100
AcDbEntity
8
0
100
AcDbPolyline
90
2
70
1
43
0.0
10
14.887552481947633
20
19.522478873175498
42
0.4142135623730957
10
13.887552481947633
20
18.522478873175498
42
-0.4142135623730957
0
LWPOLYLINE
5
108
100
AcDbEntity
8
0
100
AcDbPolyline
90
2
70
1
43
0.0
10
13.88755248194763
20
18.522478873175498
10
13.887552481947631
20
-3.3106536522346963
0
LWPOLYLINE
5
109
100
AcDbEntity
8
0
100
AcDbPolyline
90
2
70
1
43
0.0
10
12.887552481947633
20
-4.3106536522346968
42
0.4142135623730952
10
13.887552481947633
20
-3.310653652234695
42
-0.4142135623730952
0
LWPOLYLINE
5
110
100
AcDbEntity
8
0
100
AcDbPolyline
90
2
70
1
43
0.0
10
12.887552481947633
20
-4.3106536522346968
10
-3.5124475180523662
20
-4.3106536522347012
0
LWPOLYLINE
5
111
100
AcDbEntity
8
0
100
AcDbPolyline
90
2
70
1
43
0.0
10
-4.5124475180523671
20
-3.3106536522346994
42
0.4142135623730952
10
-3.5124475180523662
20
-4.3106536522347012
42
-0.4142135623730952
0
LWPOLYLINE
5
112
100
AcDbEntity
8
0
100
AcDbPolyline
90
2
70
1
43
0.0
10
-4.5124475180523671
20
-3.3106536522346994
10
-4.5124475180523707
20
18.522478873175498
0
LWPOLYLINE
5
113
100
AcDbEntity
8
0
100
AcDbPolyline
90
2
70
1
43
0.0
10
-4.5124475180523707
20
18.522478873175498
42
0.41421356237309342
10
-5.5124475180523707
20
19.522478873175501
42
-0.41421356237309342
0
LWPOLYLINE
5
114
100
AcDbEntity
8
0
100
AcDbPolyline
90
2
70
1
43
0.0
10
-5.5124475180523707
20
19.522478873175498
10
-28.880508133571105
20
19.522478873175498
0
LWPOLYLINE
5
115
100
AcDbEntity
8
0
100
AcDbPolyline
90
2
70
1
43
0.0
10
-28.880508133571105
20
19.522478873175494
42
0.41421356237309426
10
-31.380508133571105
20
17.022478873175494
42
-0.41421356237309426
0
CIRCLE
5
116
100
AcDbEntity
8
0
100
AcDbCircle
10
-27.645862021355363
20
-25.1086536522347
30
0
40
1.6000000000000014
210
0
220
0
230
1
0
CIRCLE
5
117
100
AcDbEntity
8
0
100
AcDbCircle
10
-27.645862021355363
20
15.891346347765296
30
0
40
1.6000000000000014
210
0
220
0
230
1
0
CIRCLE
5
118
100
AcDbEntity
8
0
100
AcDbCircle
10
36.154137978644663
20
-25.1086536522347
30
0
40
1.6000000000000014
210
0
220
0
230
1
0
CIRCLE
5
119
100
AcDbEntity
8
0
100
AcDbCircle
10
36.154137978644663
20
15.891346347765296
30
0
40
1.6000000000000014
210
0
220
0
230
1
0
LWPOLYLINE
5
120
100
AcDbEntity
8
0
100
AcDbPolyline
90
12
70
1
43
0.0
10
-20.10095434094735
20
9.1406754729279385
10
-9.9009543409473455
20
9.1406754729279367
42
-0.41421356237309503
10
-8.9009543409473437
20
8.1406754729279385
10
-8.9009543409473455
20
4.1906754729279267
10
-8.4009543409473615
20
4.1906754729279259
10
-8.4009543409473615
20
2.0906754729279262
10
-8.9009543409473455
20
2.0906754729279271
10
-8.9009543409473473
20
-1.8593245270720637
42
-0.4142135623730957
10
-9.9009543409473473
20
-2.8593245270720642
10
-20.10095434094735
20
-2.8593245270720558
42
-0.41421356237309453
10
-21.10095434094735
20
-1.8593245270720571
10
-21.10095434094735
20
8.1406754729279385
42
-0.4142135623730947
0
LWPOLYLINE
5
121
100
AcDbEntity
8
0
100
AcDbPolyline
90
12
70
1
43
0.0
10
17.899045659052543
20
9.1406754729279562
10
28.099045659052535
20
9.1406754729279545
42
-0.4142135623730947
10
29.099045659052539
20
8.1406754729279545
10
29.099045659052539
20
4.1906754729280262
10
29.599045659052578
20
4.1906754729280244
10
29.599045659052589
20
2.0906754729280239
10
29.099045659052539
20
2.0906754729280195
10
29.099045659052535
20
-1.8593245270720351
42
-0.41421356237309237
10
28.099045659052532
20
-2.8593245270720349
10
17.899045659052543
20
-2.859324527072038
42
-0.41421356237309709
10
16.899045659052543
20
-1.8593245270720393
10
16.89904565905254
20
8.1406754729279562
42
-0.41421356237309698
0
LWPOLYLINE
5
122
100
AcDbEntity
8
0
100
AcDbPolyline
90
8
70
1
43
0.0
10
-21.300884920472697
20
-7.1641793766021733
10
-8.3009118178212127
20
-7.1641793766021733
42
-0.41421356237309503
10
-7.8009118178212127
20
-7.6641793766021742
10
-7.8009118178212145
20
-20.664153433194819
42
-0.41421356237309503
10
-8.3009118178212127
20
-21.164153433194816
10
-21.300884920472697
20
-21.164153433194816
42
-0.41421356237309503
10
-21.800884920472697
20
-20.664153433194819
10
-21.800884920472701
20
-7.6641793766021742
42
-0.41421356237309503
0
LWPOLYLINE
5
123
100
AcDbEntity
8
0
100
AcDbPolyline
90
8
70
1
43
0.0
10
10.704404560724896
20
-21.164153433194816
42
0.41421356237309503
10
11.204404560724896
20
-20.664153433194819
10
11.204404560724896
20
-7.6641793766021742
42
0.41421356237309503
10
10.704404560724896
20
-7.1641793766021733
10
-2.2955694958677597
20
-7.1641793766021733
42
0.4142135623730952
10
-2.7955694958677602
20
-7.6641793766021742
10
-2.7955694958677597
20
-20.664153433194819
42
0.41421356237309503
10
-2.2955694958677597
20
-21.164153433194816
0
LWPOLYLINE
5
124
100
AcDbEntity
8
0
100
AcDbPolyline
90
8
70
1
43
0.0
10
16.709746882678349
20
-7.1641793766021733
10
29.709720939270994
20
-7.164179376602176
42
-0.41421356237309503
10
30.209720939270994
20
-7.6641793766021742
10
30.209720939270994
20
-20.664153433194819
42
-0.41421356237309503
10
29.709720939270994
20
-21.164153433194816
10
16.709746882678349
20
-21.164153433194819
42
-0.41421356237309503
10
16.209746882678349
20
-20.664153433194819
10
16.209746882678349
20
-7.6641793766021742
42
-0.41421356237309503
0
LWPOLYLINE
5
125
100
AcDbEntity
8
0
100
AcDbPolyline
90
16
70
1
43
0.0
10
-31.330508133571104
20
-26.293230254815821
42
0.41421356237309614
10
-28.880508133571105
20
-28.743230254815821
10
37.389370607003258
20
-28.743230254815821
42
0.41421356237309614
10
39.839370607003261
20
-26.293230254815821
10
39.839370607003261
20
17.022478873175494
42
0.41421356237309503
10
37.389370607003258
20
19.472478873175497
10
14.887552481947633
20
19.472478873175497
42
0.41421356237309576
10
13.937552481947629
20
18.522478873175498
10
13.937552481947632
20
-3.3106536522346963
42
-0.4142135623730952
10
12.887552481947633
20
-4.3606536522346966
10
-3.5124475180523662
20
-4.3606536522347019
42
-0.41421356237309537
10
-4.5624475180523669
20
-3.3106536522346994
10
-4.5624475180523696
20
18.522478873175498
42
0.41421356237309437
10
-5.512447518052368
20
19.472478873175497
10
-28.880508133571105
20
19.472478873175497
42
0.41421356237309531
10
-31.330508133571104
20
17.022478873175494
0
ENDSEC
0
SECTION
2
OBJECTS
0
DICTIONARY
5
C
100
AcDbDictionary
3
ACAD_GROUP
350
D
3
ACAD_MLINESTYLE
350
17
0
DICTIONARY
5
D
100
AcDbDictionary
0
DICTIONARY
5
1A
330
C
100
AcDbDictionary
0
DICTIONARY
5
17
100
AcDbDictionary
0
ENDSEC
0
EOF
